<?xml version="1.0" standalone="no"?>
<!DOCTYPE svg PUBLIC "-//W3C//DTD SVG 20010904//EN"
 "http://www.w3.org/TR/2001/REC-SVG-20010904/DTD/svg10.dtd">
<svg version="1.0" xmlns="http://www.w3.org/2000/svg"
 width="80.000000pt" height="80.000000pt" viewBox="0 0 80.000000 80.000000"
 preserveAspectRatio="xMidYMid meet">
<metadata>
Created by potrace 1.14, written by Peter Selinger 2001-2017
</metadata>
<g transform="translate(0.000000,80.000000) scale(0.100000,-0.100000)"
fill="#000000" stroke="none">
<path d="M306 789 c-213 -53 -346 -276 -292 -489 31 -119 106 -207 225 -264
60 -28 75 -31 161 -31 86 0 102 3 162 32 92 43 151 100 194 189 128 257 -51
560 -335 570 -42 2 -93 -1 -115 -7z m72 -357 l3 -122 59 0 c53 0 60 -2 60 -20
0 -18 -7 -20 -85 -20 l-85 0 0 138 c0 76 3 142 7 146 4 4 14 5 23 4 12 -3 15
-25 18 -126z"/>
</g>
</svg>
